<svg id="Layer_1" data-name="Layer 1" xmlns="http://www.w3.org/2000/svg" viewBox="0 0 1000 1000"><defs><style>.cls-1{font-size:115px;fill:#fff;font-family:Archivo-Bold, Archivo;font-weight:700;}</style></defs><title>12Artboard 1@22</title><text class="cls-1" transform="translate(359.44 853.52) rotate(-152)">C</text><text class="cls-1" transform="matrix(-0.8, -0.6, 0.6, -0.8, 289.47, 814.84)">r</text><text class="cls-1" transform="translate(255.34 789.98) rotate(-135.01)">e</text><text class="cls-1" transform="translate(212.05 747.05) rotate(-125.84)">a</text><text class="cls-1" transform="translate(176.59 696.81) rotate(-118.47)">t</text><text class="cls-1" transform="translate(159.2 664.62) rotate(-113.39)">i</text><text class="cls-1" transform="translate(146.37 637.76) rotate(-106.43)">v</text><text class="cls-1" transform="translate(128.91 579.35) rotate(-97.17)">e</text><text class="cls-1" transform="matrix(-0.02, -1, 1, -0.02, 122.22, 518.35)"> </text><text class="cls-1" transform="translate(121.66 487.82) rotate(-85.32)">f</text><text class="cls-1" transform="translate(123.32 452.01) rotate(-77.49)">u</text><text class="cls-1" transform="translate(139.05 386.11) rotate(-70.06)">l</text><text class="cls-1" transform="translate(149.37 357.48) rotate(-65.43)">l</text><text class="cls-1" transform="translate(161.77 329.85) rotate(-60.34)">-</text><text class="cls-1" transform="matrix(0.6, -0.8, 0.8, 0.6, 178.69, 298.16)">s</text><text class="cls-1" transform="translate(216.23 249.47) rotate(-45.66)">t</text><text class="cls-1" transform="matrix(0.78, -0.62, 0.62, 0.78, 240.65, 223.09)">a</text><text class="cls-1" transform="matrix(0.87, -0.49, 0.49, 0.87, 288.34, 185.08)">c</text><text class="cls-1" transform="translate(341.47 155.2) rotate(-19.86)">k</text><text class="cls-1" transform="translate(399.68 135.05) rotate(-12.9)"> </text><text class="cls-1" transform="translate(428.24 127.09) rotate(-5.52)">d</text><text class="cls-1" transform="translate(495.13 120.65) rotate(4.04)">e</text><text class="cls-1" transform="matrix(0.97, 0.23, -0.23, 0.97, 555.96, 124.69)">v</text><text class="cls-1" transform="matrix(0.92, 0.38, -0.38, 0.92, 615.34, 138.44)">e</text><text class="cls-1" transform="translate(671.91 162.83) rotate(29.49)">l</text><text class="cls-1" transform="matrix(0.8, 0.6, -0.6, 0.8, 698.38, 176.21)">o</text><text class="cls-1" transform="translate(752.19 216.19) rotate(46.92)">p</text><text class="cls-1" transform="matrix(0.55, 0.83, -0.83, 0.55, 798.06, 265.23)">e</text><text class="cls-1" transform="translate(831.47 316.69) rotate(64.4)">r</text><text class="cls-1" transform="translate(847.46 349.91) rotate(69.05)">.</text><text class="cls-1" transform="translate(858.39 378.29) rotate(73.69)"> </text><text class="cls-1" transform="translate(868.31 406.1) rotate(81.56)">E</text><text class="cls-1" transform="translate(878.8 478.82) rotate(91.6)">v</text><text class="cls-1" transform="translate(877.34 539.78) rotate(100.79)">e</text><text class="cls-1" transform="translate(865.39 599.93) rotate(108.67)">r</text><text class="cls-1" transform="matrix(-0.45, 0.89, -0.89, -0.45, 852.67, 640.17)">e</text><text class="cls-1" transform="matrix(-0.58, 0.81, -0.81, -0.58, 825.63, 694.82)">s</text><text class="cls-1" transform="translate(789.15 744.3) rotate(133.11)">t</text><text class="cls-1" transform="translate(764.07 771) rotate(138.14)"> </text><text class="cls-1" transform="translate(743.85 792.34) rotate(146.86)">G</text><text class="cls-1" transform="matrix(-0.93, 0.37, -0.37, -0.93, 671.72, 838.73)">u</text><text class="cls-1" transform="matrix(-0.98, 0.21, -0.21, -0.98, 609.32, 863.42)">e</text><text class="cls-1" transform="matrix(-1, 0.07, -0.07, -1, 549.18, 875.54)">r</text><text class="cls-1" transform="translate(506.67 878.64) rotate(-177.66)">r</text><text class="cls-1" transform="matrix(-0.98, -0.18, 0.18, -0.98, 464.44, 877.76)">a</text><text class="cls-1" transform="translate(403.97 866.1) rotate(-162.9)">.</text></svg>