<?xml version="1.0" encoding="utf-8"?>
<!-- Generator: Adobe Illustrator 21.0.0, SVG Export Plug-In . SVG Version: 6.00 Build 0)  -->
<svg version="1.1" id="Layer_1" xmlns="http://www.w3.org/2000/svg" xmlns:xlink="http://www.w3.org/1999/xlink" x="0px" y="0px"
	 viewBox="0 0 1000 1000" style="enable-background:new 0 0 1000 1000;" xml:space="preserve">
<style type="text/css">
	.st0{enable-background:new    ;}
	.st1{fill:#FFFFFF;}
</style>
<title>12Artboard 1@22</title>
<g class="st0">
	<path class="st1" d="M336.7,886.1c-6.4,12-14.1,19.5-23.2,22.4c-9.1,2.9-19,1.4-29.7-4.2c-5.9-3.1-10.7-6.9-14.3-11.4
		c-3.6-4.5-5.7-9.5-6.3-15.1c-0.6-5.6,0.7-11.3,3.9-17.2l15.1,8c-2.4,4.5-2.9,8.9-1.3,13c1.5,4.2,4.6,7.5,9.3,10
		c6.4,3.4,12.1,4,17.2,1.9c5.1-2.1,9.6-6.8,13.4-13.9l1.6-3c7.8-14.7,5.4-25.4-7.2-32.1c-4.9-2.6-9.6-3.4-13.9-2.4
		c-4.3,1-7.7,3.8-10.1,8.3l-14.6-7.8c3.2-6,7.2-10.2,12-12.8c4.8-2.6,10.1-3.6,15.9-3.2s11.6,2.3,17.6,5.5
		C344.6,844.1,349.4,862,336.7,886.1z"/>
</g>
<g class="st0">
	<path class="st1" d="M246.5,858.1l-10.7-8.1l4.9-8.6L240,841c-3.1,2-6.1,3.1-9,3.5c-2.9,0.3-5.6-0.5-8.3-2.5
		c-1.2-0.9-2.1-1.8-2.8-2.6c-0.7-0.9-1.2-1.5-1.3-1.8l8.9-11.7l3.5,2.6c4.1,3.1,7.9,4.2,11.4,3.4c3.5-0.8,7-3.5,10.4-8.1l17.6-23.3
		l12.6,9.5L246.5,858.1z"/>
</g>
<g class="st0">
	<path class="st1" d="M244.5,787.9c-0.2,7-4.1,14.3-11.6,22c-7.6,7.7-14.8,11.7-21.8,12c-7,0.3-14-3-20.9-9.8
		c-6.4-6.3-9.3-12.8-8.9-19.6c0.5-6.8,4.5-14,12-21.6l2.6-2.6l28.3,27.9c3.6-3.9,5.7-7.5,6-10.7c0.4-3.2-1.1-6.5-4.4-9.7
		c-2.3-2.3-4.9-3.5-7.6-3.6c-2.7-0.1-5.3,1-7.6,3.4l-11-10.9c5.3-5.4,11-7.7,17.2-7c6.1,0.7,12.1,3.9,17.8,9.6
		C241.3,774,244.7,780.9,244.5,787.9z M200.1,787.1c-5.8,5.9-6.3,11.3-1.3,16.2c2.8,2.8,5.7,4.2,8.6,4.1c2.9,0,6-1.4,9.3-4.1
		L200.1,787.1z"/>
</g>
<g class="st0">
	<path class="st1" d="M206.1,742.5c0.3,4.6-2.1,8.8-7.3,12.6c-6.3,4.6-12.6,5.2-19,2c-6.4-3.2-13-9.5-19.9-18.9l-3.4,2.5
		c-2.2,1.6-3.5,3.3-4,5.1c-0.5,1.8,0.3,4.1,2.2,6.7c2.1,2.8,4,4.6,5.7,5.1c1.8,0.6,3.2,0.4,4.4-0.4l1.4-1l9,12.3
		c-0.3,0.3-1,0.9-2,1.6c-4.1,3-8.7,3.6-13.8,1.8c-5.1-1.8-9.9-5.7-14.3-11.7c-4.9-6.7-7.2-12.7-6.9-18c0.3-5.3,3-9.8,8.2-13.6
		l21.5-15.7c1.1-0.8,1.7-1.7,1.8-2.7c0.1-1-0.2-2-0.9-2.9l-1.9-2.6l8.9-6.5c2.4,1.3,4.7,3.3,6.8,6.3c1.9,2.5,2.8,5.1,3,7.6
		c0.1,2.5-0.6,4.8-2.2,6.9l0.4,0.6c3.4,0.3,6.5,1.2,9.3,2.7s5.5,4.2,8.2,7.9C204.2,733.7,205.8,737.9,206.1,742.5z M179.8,727.6
		c-3.2-0.2-6.5,0.9-9.9,3.4l-1.5,1.1c8.1,11.1,14.6,14.8,19.6,11.2c1.5-1.1,2.4-2.5,2.6-4.2c0.2-1.7-0.5-3.6-2-5.7
		C185.9,729.7,183,727.8,179.8,727.6z"/>
</g>
<g class="st0">
	<path class="st1" d="M169,689.3c-1.5,3.6-4.3,6.6-8.5,8.8l-28.8,15.7l3.5,6.4l-11.3,6.2l-3.6-6.7l-16.2,5.8l-6.1-11.2l15-8.2
		l-5-9.2l11.3-6.2l5,9.2l27.4-15c2.9-1.6,3.6-3.8,2-6.7l-2.6-4.9l9.7-5.3c1,0.9,2.2,2.2,3.5,3.7c1.3,1.5,2.3,3,3.1,4.5
		C169.9,681.4,170.5,685.7,169,689.3z"/>
</g>
<g class="st0">
	<path class="st1" d="M81.9,694.9l-6.5-14.4l13-5.8l6.5,14.4L81.9,694.9z M102.5,685.6l-6.5-14.4l55.2-24.8l6.5,14.4L102.5,685.6z"
		/>
</g>
<g class="st0">
	<path class="st1" d="M90.8,660.7l-5-15.7l21.9-16.8c1.6-1.2,4.3-3.1,8.2-5.5s6.4-4,7.6-4.8l-0.2-0.5c-1.4,0.1-4.3,0.3-8.7,0.5
		c-4.4,0.2-7.8,0.3-10.2,0.1l-27.6-1l-4.8-15.2l64.5,3.4l5,15.9L90.8,660.7z"/>
</g>
<g class="st0">
	<path class="st1" d="M122.8,577.2c-4.4,5.5-11.9,9-22.6,10.6c-10.7,1.6-18.9,0.4-24.7-3.6c-5.8-4-9.4-10.8-10.8-20.4
		c-1.3-8.9,0.3-15.9,4.7-21c4.5-5.2,12-8.5,22.6-10.1l3.6-0.5l5.8,39.4c5.3-0.9,9.1-2.6,11.3-4.9c2.2-2.3,3-5.8,2.3-10.5
		c-0.5-3.3-1.8-5.8-3.9-7.5c-2.1-1.7-4.8-2.4-8.2-1.9l-2.3-15.4c7.5-1.1,13.5,0.5,18,4.8c4.5,4.3,7.3,10.4,8.5,18.4
		C128.7,564.2,127.2,571.7,122.8,577.2z M87.7,549.8c-8.3,1.2-11.9,5.3-10.9,12.2c0.6,3.9,2,6.8,4.4,8.5c2.3,1.7,5.6,2.5,9.9,2.3
		L87.7,549.8z"/>
</g>
<g class="st0">
	<path class="st1" d="M74.6,483.7l-0.5,8.6l-12.9-0.7l0.5-8.6l-6.9-0.4c-4.7-0.3-8.6-1.8-11.7-4.5c-3-2.7-4.4-7-4-12.8
		c0.1-1.6,0.4-3.4,0.9-5.2c0.5-1.9,1-3.5,1.5-4.7l11,0.6l-0.3,5.7c-0.2,3.3,1.4,5,4.7,5.2l5.7,0.3l0.6-10.7l12.9,0.7L75.5,468
		l47.5,2.7l-0.9,15.7L74.6,483.7z"/>
</g>
<g class="st0">
	<path class="st1" d="M121.1,448.7c-4,2.9-9.6,3.6-16.9,2.2l-39.9-7.6l2.9-15.5l36.6,7c3.7,0.7,6.5,0.3,8.5-1.1
		c2-1.4,3.3-3.8,3.9-7.2c0.7-3.5,0-6.6-2-9.3c-2-2.8-4.8-4.5-8.4-5.2l-34.3-6.5l2.9-15.5l59.4,11.3l-2.5,13.2l-8-0.4l-0.2,0.8
		c5.2,6,7.1,12.7,5.6,20.3C127.7,441.4,125.1,445.8,121.1,448.7z"/>
</g>
<g class="st0">
	<path class="st1" d="M59.1,364.5l4.9-15l79,25.8l-4.9,15L59.1,364.5z"/>
</g>
<g class="st0">
	<path class="st1" d="M70.3,332.1l6-14.6l77,31.4l-6,14.6L70.3,332.1z"/>
</g>
<g class="st0">
	<path class="st1" d="M123.3,322.9l12.6-24.7l12.1,6.2l-12.6,24.7L123.3,322.9z"/>
</g>
<g class="st0">
	<path class="st1" d="M174.1,300c-5.6,2-10.8,1.3-15.6-1.9l-1.1-0.9l8.6-12.6l0.7,0.5c2.3,1.5,4.5,1.5,6.8,0.3
		c2.3-1.3,4.4-3.3,6.3-6.1c1.8-2.6,2.9-5,3.5-7.4c0.6-2.3,0-4-1.5-5.1c-1.8-1.2-3.7-1.2-5.9,0.1c-2.2,1.3-5,3.6-8.7,7
		c-3.8,3.5-7,6.2-9.8,8.1c-2.8,1.9-5.8,3.1-9.2,3.6c-3.4,0.5-6.8-0.5-10.3-2.9c-4.9-3.3-7.2-7.9-7.1-13.8c0.2-5.9,2.4-12,6.9-18.5
		c4.1-6,8.7-10.1,13.8-12.4c5.1-2.3,9.8-2,13.9,0.9l2.1,1.6L159,253l-0.2-0.1c-1.9-1.2-3.8-1.3-5.8-0.4c-2,0.9-3.8,2.6-5.6,5.2
		c-1.8,2.6-2.8,4.9-3.2,6.9c-0.3,2,0.1,3.4,1.4,4.3c1.6,1.1,3.3,1,5.3-0.2c1.9-1.2,4.6-3.5,8-6.8c3.8-3.6,7.2-6.4,9.9-8.4
		c2.8-2,5.9-3.3,9.4-3.8c3.5-0.5,7.1,0.5,10.7,3c10.8,7.4,10.9,18.7,0.5,33.9C184.8,293.5,179.7,298,174.1,300z"/>
</g>
<g class="st0">
	<path class="st1" d="M209.9,252.5c-3.9-0.2-7.6-1.8-11.1-4.9L174.2,226l-4.8,5.4l-9.7-8.5l5-5.7l-11-13.2l8.4-9.6l12.8,11.2
		l6.9-7.8l9.7,8.5l-6.9,7.8l23.4,20.6c2.5,2.2,4.8,2,7-0.4l3.6-4.1l8.3,7.3c-0.5,1.3-1.3,2.8-2.3,4.5c-1,1.7-2.1,3.2-3.2,4.5
		C217.6,250.7,213.8,252.7,209.9,252.5z"/>
</g>
<g class="st0">
	<path class="st1" d="M231.2,229.9c-4.6,0.8-9-1.3-13.2-6.1c-5.1-5.8-6.4-12-3.8-18.7c2.6-6.7,8.3-13.8,17-21.6l-2.8-3.2
		c-1.8-2-3.6-3.2-5.4-3.5c-1.9-0.3-4,0.6-6.5,2.8c-2.6,2.3-4.2,4.4-4.6,6.2c-0.4,1.8-0.1,3.2,0.8,4.3l1.1,1.3l-11.4,10.1
		c-0.4-0.3-0.9-0.9-1.8-1.8c-3.3-3.8-4.4-8.3-3-13.6s4.8-10.4,10.4-15.3c6.2-5.5,12-8.3,17.3-8.5c5.3-0.2,10.1,2.1,14.3,6.9l17.7,20
		c0.9,1,1.9,1.5,2.9,1.5c1,0,1.9-0.4,2.8-1.2l2.4-2.1l7.3,8.3c-1,2.5-2.9,5-5.6,7.4c-2.4,2.1-4.8,3.3-7.3,3.7
		c-2.5,0.4-4.9-0.2-7.1-1.5l-0.5,0.5c0.1,3.4-0.5,6.6-1.8,9.5c-1.3,2.9-3.6,5.9-7.1,8.9C239.8,227.3,235.8,229.2,231.2,229.9z
		 M243.6,202.3c-0.1-3.2-1.5-6.4-4.3-9.5l-1.2-1.4c-10.3,9.1-13.4,15.9-9.3,20.5c1.3,1.4,2.8,2.2,4.5,2.2c1.7,0,3.5-0.8,5.5-2.6
		C242.1,208.6,243.7,205.6,243.6,202.3z"/>
</g>
<g class="st0">
	<path class="st1" d="M277.8,185.7c-6.8-1.7-13.1-7.1-19-16.2c-5.8-9-8.1-17-6.8-23.9c1.2-6.9,5.9-13,14-18.2
		c6.8-4.3,13.3-6.1,19.5-5.2c6.2,0.9,11.5,4.6,15.8,11.2l-13.3,8.6c-2-3.1-4.3-5-7-5.6c-2.7-0.6-5.5,0-8.4,1.8
		c-3.6,2.3-5.4,5.3-5.5,8.9c-0.1,3.6,1.5,8,4.7,13l1,1.5c3.2,5,6.5,8.2,10,9.6c3.4,1.4,7.1,0.8,11-1.7c2.8-1.8,4.4-4.1,5-6.8
		c0.5-2.8-0.2-5.7-2.1-8.7l12.8-8.2c4.3,6.6,5.5,13,3.7,19c-1.8,6-6.1,11.2-12.9,15.6C292,185.7,284.6,187.4,277.8,185.7z"/>
</g>
<g class="st0">
	<path class="st1" d="M295.4,86l14.4-6.3l18.6,42.8l8.8-30l16.7-7.2l-9.1,29.3l34.3,25.7l-16.6,7.2l-22.4-18.2l-4.3,10.4l7.1,16.3
		l-14.4,6.3L295.4,86z"/>
</g>
<g class="st0">
	<path class="st1" d="M413.2,124.5c-5-4.5-8.4-12-10.2-22.5c-1.7-10.3-0.9-18.4,2.4-24.3c3.3-5.9,8.5-9.5,15.4-10.6
		c4-0.7,7.7-0.5,11,0.4c3.3,0.9,6,2.6,8.2,4.9l0.7-0.1l-4.9-29.3l15.5-2.6l13.7,82l-13.3,2.2l-2.3-7.7l-0.8,0.1
		c-1.4,3.3-3.5,6.1-6.5,8.1c-2.9,2.1-6.3,3.4-10.2,4.1C424.6,130.6,418.3,129,413.2,124.5z M444.8,96.3l-0.3-1.8
		c-1.9-11.3-7-16.2-15.5-14.8c-4.6,0.8-7.7,2.7-9.2,5.8c-1.5,3.1-1.8,7.4-0.9,13l0.3,2c0.9,5.6,2.6,9.6,5,12
		c2.4,2.4,5.9,3.3,10.6,2.5C443.3,113.6,446.6,107.4,444.8,96.3z"/>
</g>
<g class="st0">
	<path class="st1" d="M478.9,115.9c-4.9-5-7.4-13-7.7-23.8c-0.2-10.8,2-18.8,6.7-24.1c4.7-5.2,11.9-7.9,21.6-8.1
		c9-0.2,15.7,2.3,20.3,7.4c4.5,5.1,6.9,13,7.1,23.7l0.1,3.7l-39.8,0.8c0.3,5.4,1.4,9.3,3.5,11.8c2,2.5,5.4,3.7,10.1,3.7
		c3.3-0.1,5.9-1,7.9-2.9c2-1.9,3-4.5,2.9-7.9l15.5-0.3c0.2,7.6-2.2,13.3-7,17.2c-4.8,3.9-11.3,5.9-19.3,6.1
		C491.1,123.4,483.8,121,478.9,115.9z M510.6,84.6c-0.2-8.4-3.7-12.5-10.7-12.3c-4,0.1-7,1.2-9,3.3c-2,2.1-3.2,5.3-3.5,9.5
		L510.6,84.6z"/>
</g>
<g class="st0">
	<path class="st1" d="M539.5,62.2l16.2,2.6l5.3,27.1c0.4,2,0.8,5.2,1.3,9.7c0.5,4.5,0.8,7.5,0.9,9l0.6,0.1c0.5-1.3,1.7-4,3.4-8
		c1.8-4,3.2-7.1,4.4-9.1l13.3-24.2l15.8,2.5l-31.8,56.2l-16.5-2.6L539.5,62.2z"/>
</g>
<g class="st0">
	<path class="st1" d="M599.9,128.2c-3-6.4-2.8-14.7,0.6-25c3.4-10.3,8.1-17.1,14.3-20.5c6.1-3.4,13.9-3.6,23.1-0.6
		c8.5,2.8,14.1,7.3,16.7,13.6c2.6,6.3,2.3,14.6-1.1,24.8l-1.1,3.5l-37.8-12.4c-1.5,5.2-1.7,9.3-0.6,12.3c1.1,3.1,3.9,5.3,8.3,6.8
		c3.1,1,6,1,8.5-0.1c2.5-1.1,4.3-3.3,5.3-6.5l14.8,4.8c-2.4,7.2-6.5,11.9-12.3,13.9c-5.8,2.1-12.6,1.9-20.2-0.6
		C609,139.2,602.9,134.5,599.9,128.2z M640.1,109c2.6-7.9,0.6-13-6.1-15.2c-3.8-1.2-7-1.2-9.5,0.1c-2.6,1.3-4.7,3.9-6.5,7.8
		L640.1,109z"/>
</g>
<g class="st0">
	<path class="st1" d="M687.9,78.4l14.3,6.6l-34.9,75.7l-14.3-6.6L687.9,78.4z"/>
</g>
<g class="st0">
	<path class="st1" d="M684.5,162c-1.6-7,0.5-15.1,6.2-24.3c5.7-9.2,12.1-14.6,19.1-16.3c7-1.7,14.9,0.2,23.7,5.7
		c8.8,5.5,14,11.7,15.6,18.8c1.6,7.1-0.5,15.2-6.2,24.3c-5.7,9.2-12.1,14.6-19.2,16.2c-7,1.7-15-0.3-23.7-5.7
		C691.3,175.3,686.1,169.1,684.5,162z M718.7,172c3.5-1.3,6.9-4.5,10-9.5l1-1.6c3.2-5.1,4.6-9.5,4.2-13.2c-0.4-3.7-2.8-6.9-7.1-9.7
		c-4.4-2.7-8.3-3.4-11.8-2.1c-3.5,1.3-6.8,4.5-10,9.6l-1,1.6c-3.2,5.1-4.6,9.5-4.2,13.2c0.4,3.7,2.7,6.9,7.1,9.6
		C711.2,172.6,715.2,173.3,718.7,172z"/>
</g>
<g class="st0">
	<path class="st1" d="M772.6,155.5l10,9l-4.5,6.6l0.6,0.5c3.5-1,6.9-1,10.4-0.1c3.4,1,6.6,2.8,9.5,5.4c5.7,5.1,8.4,11,8.1,17.7
		c-0.4,6.7-4.1,14.1-11.2,22c-6.9,7.8-13.8,12.2-20.5,13.3s-12.7-0.7-17.9-5.4c-3-2.7-5.2-5.6-6.6-8.8c-1.3-3.2-1.8-6.3-1.3-9.5
		l-0.5-0.5L730.9,226l-11.8-10.5L772.6,155.5z M772.2,214.1c3.3-0.8,6.9-3.3,10.7-7.5l1.4-1.5c3.8-4.2,5.9-8.1,6.2-11.5
		c0.4-3.4-1.2-6.7-4.7-9.8c-6.4-5.7-13.4-4.4-20.9,4l-1.2,1.4c-7.6,8.5-8.2,15.6-1.8,21.4C765.4,213.6,768.8,214.8,772.2,214.1z"/>
</g>
<g class="st0">
	<path class="st1" d="M786.9,243.3c1-7,5.7-13.8,14.1-20.6c8.4-6.8,16.1-9.9,23.1-9.4c7,0.5,13.6,4.6,19.7,12.2
		c5.6,7,7.8,13.8,6.6,20.6c-1.2,6.7-6.1,13.4-14.4,20.1l-2.9,2.3l-24.9-31c-4.1,3.5-6.5,6.8-7.3,10c-0.8,3.2,0.3,6.6,3.3,10.2
		c2.1,2.6,4.5,4.1,7.2,4.5c2.7,0.4,5.4-0.4,8-2.5l9.7,12.1c-5.9,4.8-11.9,6.4-17.9,5c-6-1.4-11.6-5.3-16.6-11.6
		C788.4,257.5,785.9,250.3,786.9,243.3z M831,249.2c6.5-5.2,7.6-10.6,3.2-16c-2.5-3.1-5.2-4.8-8.1-5.1c-2.9-0.3-6.1,0.7-9.7,3
		L831,249.2z"/>
</g>
<g class="st0">
	<path class="st1" d="M868.9,262.4l7,11.5l-7.7,6.1l0.4,0.7c3.6-0.7,6.8-0.6,9.6,0.1c2.8,0.7,5,2.6,6.8,5.4c0.8,1.2,1.3,2.4,1.6,3.5
		c0.3,1.1,0.5,1.8,0.6,2.1l-12.6,7.6l-2.3-3.7c-2.7-4.4-5.8-6.9-9.4-7.4c-3.6-0.5-7.8,0.7-12.7,3.6l-25,15.1l-8.1-13.5L868.9,262.4z
		"/>
</g>
<g class="st0">
	<path class="st1" d="M848.6,316.4l7.1,14.2l-14.1,7.1l-7.1-14.2L848.6,316.4z"/>
</g>
<g class="st0">
	<path class="st1" d="M935.6,358.7l14.9,60.1l-13.7,3.4l-10.9-44l-16.8,4.2l9.7,39l-13.7,3.4l-9.7-39l-18.5,4.6l11,44.6l-13.7,3.4
		l-15-60.8L935.6,358.7z"/>
</g>
<g class="st0">
	<path class="st1" d="M935.2,438.2l1.2,16.4l-25.2,11.3c-1.9,0.8-4.9,2-9.2,3.4c-4.3,1.5-7.1,2.4-8.6,2.9l0,0.6
		c1.4,0.2,4.3,0.7,8.6,1.5c4.3,0.8,7.6,1.5,9.9,2.2l26.6,7.4l1.2,15.9l-62-18.2l-1.2-16.6L935.2,438.2z"/>
</g>
<g class="st0">
	<path class="st1" d="M884.7,512c5.5-4.3,13.7-6.1,24.4-5.2c10.8,0.9,18.5,4,23.2,9.2c4.7,5.2,6.7,12.7,5.9,22.4
		c-0.8,8.9-3.9,15.4-9.4,19.4c-5.5,4-13.6,5.5-24.3,4.7l-3.7-0.3l3.3-39.7c-5.4-0.3-9.4,0.4-12.1,2.2c-2.7,1.8-4.3,5-4.7,9.6
		c-0.3,3.3,0.4,6,2.1,8.2c1.7,2.2,4.2,3.4,7.5,3.7l-1.3,15.5c-7.6-0.6-13-3.6-16.4-8.8c-3.4-5.2-4.7-11.8-4-19.8
		C876.1,523.4,879.2,516.4,884.7,512z M912.6,546.7c8.3,0.7,12.8-2.4,13.4-9.4c0.3-4-0.4-7.1-2.3-9.3c-1.9-2.2-4.9-3.7-9.1-4.5
		L912.6,546.7z"/>
</g>
<g class="st0">
	<path class="st1" d="M931,582.4l-2.9,13.1l-9.8-0.9l-0.2,0.8c3.1,2,5.4,4.3,6.9,6.7c1.5,2.5,1.9,5.3,1.2,8.6
		c-0.3,1.4-0.7,2.6-1.2,3.7c-0.5,1-0.9,1.7-1.1,1.9l-14.4-3.2l0.9-4.3c1.1-5,0.5-8.9-1.7-11.8c-2.2-2.9-6.1-4.9-11.7-6.1l-28.5-6.3
		l3.4-15.4L931,582.4z"/>
</g>
<g class="st0">
	<path class="st1" d="M867.9,613.4c6.5-2.7,14.8-2.2,24.9,1.5s16.8,8.7,20,15c3.2,6.3,3.1,14-0.3,23.1c-3.1,8.4-7.8,13.8-14.2,16.2
		c-6.4,2.4-14.6,1.7-24.7-2l-3.5-1.3l13.7-37.3c-5.1-1.7-9.2-2.1-12.3-1.1c-3.1,1-5.5,3.7-7.1,8.1c-1.1,3.1-1.2,5.9-0.2,8.5
		c1,2.5,3.1,4.4,6.3,5.6l-5.4,14.6c-7.1-2.6-11.6-6.9-13.5-12.8c-1.9-5.9-1.4-12.7,1.4-20.2C856.5,622.1,861.5,616.2,867.9,613.4z
		 M885.6,654.3c7.8,2.9,13,1.1,15.4-5.5c1.4-3.7,1.4-6.9,0.2-9.5c-1.2-2.6-3.8-4.9-7.6-6.8L885.6,654.3z"/>
</g>
<g class="st0">
	<path class="st1" d="M842.2,670.7c5.4-2.5,10.6-2.3,15.7,0.6l1.1,0.8l-7.5,13.3l-0.7-0.4c-2.4-1.2-4.7-1.1-6.8,0.3
		c-2.2,1.5-4.1,3.7-5.8,6.6c-1.5,2.7-2.5,5.3-2.8,7.6c-0.4,2.4,0.3,4,2,4.9c1.9,1.1,3.8,0.9,5.9-0.6c2-1.4,4.7-4,8-7.7
		c3.4-3.8,6.5-6.8,9-8.9c2.6-2.2,5.5-3.6,8.9-4.4c3.3-0.8,6.8-0.1,10.5,1.9c5.1,2.9,7.9,7.3,8.2,13.1c0.4,5.9-1.4,12.2-5.2,19
		c-3.6,6.3-7.8,10.9-12.7,13.6c-4.9,2.7-9.6,2.8-14,0.3l-2.2-1.4l7.5-13.3l0.2,0.1c2,1,3.9,1,5.8-0.1c1.9-1.1,3.6-3,5.1-5.7
		c1.5-2.7,2.4-5.1,2.6-7.1c0.2-2-0.4-3.4-1.8-4.2c-1.7-0.9-3.4-0.7-5.3,0.7c-1.8,1.4-4.3,3.9-7.4,7.5c-3.5,3.9-6.6,7-9.1,9.2
		c-2.6,2.2-5.6,3.8-9,4.6c-3.4,0.8-7.1,0.1-11-2.1c-11.4-6.4-12.5-17.6-3.5-33.7C832.1,678.1,836.8,673.2,842.2,670.7z"/>
</g>
<g class="st0">
	<path class="st1" d="M810.7,721.2c3.9-0.2,7.8,1.1,11.6,3.9l26.5,19.3l4.3-5.9l10.4,7.6l-4.5,6.1l12.2,12.2l-7.5,10.3l-13.8-10
		l-6.2,8.5l-10.4-7.6l6.2-8.5l-25.2-18.4c-2.7-1.9-5-1.6-6.9,1.1l-3.3,4.5l-8.9-6.5c0.4-1.3,1-2.9,1.9-4.7c0.8-1.8,1.8-3.4,2.8-4.8
		C803.2,723.7,806.8,721.4,810.7,721.2z"/>
</g>
<g class="st0">
	<path class="st1" d="M772.6,820.6l-31.3,26l-27.5-33l8.9-7.4l6.7,5.8c0.6-5.1,1.9-9.5,4-13.4c2.1-3.8,5.4-7.6,9.9-11.4
		c9.4-7.8,18.8-11.3,28.1-10.4c9.4,0.9,18.5,6.7,27.4,17.4c8.7,10.4,12.5,20.6,11.4,30.3c-1.1,9.8-6.6,18.8-16.5,27
		c-5.3,4.4-10.7,7.5-16.4,9.5c-5.7,2-11.2,2.4-16.5,1.3c-5.3-1.1-9.9-4.1-13.8-8.8l13.3-11c2.7,3.3,6.4,4.7,11,4.3
		c4.6-0.5,8.9-2.4,13-5.8c6.2-5.2,9.4-10.6,9.7-16.5c0.3-5.8-2.1-11.8-7.3-18l-2.2-2.7c-5.4-6.5-10.8-10.2-16.2-11
		c-5.4-0.8-11,1.2-16.8,6c-4.8,4-7.8,8.4-9,13.3c-1.2,4.9-0.3,9.3,2.9,13.2l18.4-15.3L772.6,820.6z"/>
</g>
<g class="st0">
	<path class="st1" d="M701.4,825c4.7,1.2,8.9,5.1,12.5,11.7l19.5,35.6l-13.8,7.6l-17.9-32.7c-1.8-3.3-3.9-5.3-6.2-5.9
		c-2.4-0.6-5-0.1-8.1,1.5c-3.1,1.7-5.1,4.2-5.9,7.5c-0.9,3.3-0.4,6.6,1.4,9.8l16.8,30.7l-13.8,7.6l-29.1-53.1l11.8-6.5l4.8,6.4
		l0.7-0.4c1.3-7.8,5.3-13.5,12.1-17.2C691.6,824.6,696.7,823.7,701.4,825z"/>
</g>
<g class="st0">
	<path class="st1" d="M645.6,856.4c6.2,3.3,11.1,10,14.6,20.2c3.5,10.2,3.9,18.5,1.1,25c-2.8,6.4-8.9,11.2-18.1,14.4
		c-8.5,2.9-15.7,2.7-21.6-0.7c-5.9-3.4-10.6-10.2-14.1-20.4l-1.2-3.5l37.6-13.1c-1.9-5-4.2-8.4-6.9-10.2c-2.7-1.8-6.3-1.9-10.7-0.4
		c-3.1,1.1-5.3,2.8-6.6,5.2c-1.3,2.4-1.4,5.2-0.3,8.4l-14.7,5.1c-2.5-7.2-2-13.4,1.4-18.5c3.4-5.2,8.9-9.1,16.5-11.8
		C631.7,853.1,639.4,853.1,645.6,856.4z M625.2,896c2.7,7.9,7.4,10.7,14,8.4c3.8-1.3,6.3-3.3,7.5-5.9c1.2-2.6,1.4-6,0.4-10.1
		L625.2,896z"/>
</g>
<g class="st0">
	<path class="st1" d="M600.1,927.3l-13.2,2.7l-3.2-9.3l-0.8,0.2c-0.6,3.6-1.7,6.6-3.3,9c-1.6,2.4-4.1,3.9-7.4,4.5
		c-1.4,0.3-2.7,0.4-3.9,0.4c-1.1,0-1.9-0.1-2.2-0.2l-2.9-14.4l4.3-0.9c5-1,8.4-3.1,10.1-6.3c1.7-3.2,2-7.6,0.9-13.1l-5.8-28.6
		l15.4-3.1L600.1,927.3z"/>
</g>
<g class="st0">
	<path class="st1" d="M553.7,935.7l-13.5,1.2l-2.1-9.7l-0.8,0.1c-1,3.6-2.4,6.4-4.3,8.6c-1.9,2.2-4.5,3.4-7.9,3.7
		c-1.5,0.1-2.8,0.1-3.9-0.1c-1.1-0.2-1.9-0.3-2.2-0.4l-1.3-14.7l4.4-0.4c5.1-0.5,8.7-2.2,10.8-5.2c2-3,2.8-7.3,2.3-13l-2.6-29.2
		l15.8-1.4L553.7,935.7z"/>
</g>
<g class="st0">
	<path class="st1" d="M507.3,880.9c3.8,2.6,5.6,7.1,5.3,13.6c-0.3,7.7-3.7,13.1-10.2,16.1c-6.5,3-15.6,4.3-27.2,3.8l-0.2,4.3
		c-0.1,2.7,0.4,4.8,1.5,6.3c1.1,1.5,3.3,2.3,6.6,2.5c3.5,0.1,6.1-0.3,7.6-1.3c1.5-1,2.3-2.2,2.4-3.7l0.1-1.7l15.2,0.6
		c0.1,0.5,0.1,1.3,0,2.5c-0.2,5.1-2.6,9-7.2,11.9c-4.6,2.9-10.6,4.2-18.1,3.9c-8.3-0.3-14.4-2.3-18.4-5.8c-4-3.5-5.8-8.5-5.6-14.8
		l1.1-26.7c0.1-1.4-0.3-2.4-1-3.1c-0.7-0.7-1.7-1-2.8-1.1l-3.2-0.1l0.4-11c2.5-1.1,5.6-1.6,9.2-1.5c3.1,0.1,5.7,0.9,7.8,2.4
		c2.1,1.5,3.4,3.5,4.1,6l0.7,0c2.3-2.5,5-4.4,7.9-5.6c2.9-1.2,6.7-1.7,11.3-1.6C499.2,876.9,503.4,878.3,507.3,880.9z M479.2,892.3
		c-2.2,2.4-3.3,5.7-3.5,9.8l-0.1,1.8c13.7,0.6,20.7-2.2,20.9-8.4c0.1-1.9-0.5-3.5-1.7-4.7c-1.2-1.2-3.1-1.9-5.7-2
		C484.7,888.8,481.3,889.9,479.2,892.3z"/>
</g>
<g class="st0">
	<path class="st1" d="M444.6,890l-15.7-2.5l2.5-15.6l15.7,2.5L444.6,890z"/>
</g>
</svg>
