<svg id="Layer_1" data-name="Layer 1" xmlns="http://www.w3.org/2000/svg" viewBox="0 0 1000 1000"><defs><style>.cls-1{font-size:115px;fill:#fff;font-family:Archivo-SemiBold, Archivo;font-weight:700;}</style></defs><title>12Artboard 1@22</title><text class="cls-1" transform="translate(359.44 853.52) rotate(-152)">C</text><text class="cls-1" transform="translate(289.48 814.78) rotate(-142.96)">r</text><text class="cls-1" transform="matrix(-0.71, -0.7, 0.7, -0.71, 256.94, 791.32)">e</text><text class="cls-1" transform="translate(213.4 748.61) rotate(-126.15)">a</text><text class="cls-1" transform="matrix(-0.48, -0.88, 0.88, -0.48, 177.69, 698.51)">t</text><text class="cls-1" transform="translate(161.05 668.28) rotate(-114.18)">i</text><text class="cls-1" transform="translate(148.76 643.49) rotate(-107.54)">v</text><text class="cls-1" transform="translate(130.74 587.51) rotate(-98.43)">e</text><text class="cls-1" transform="translate(122.52 526.42) rotate(-91.55)"> </text><text class="cls-1" transform="translate(121.54 496.08) rotate(-86.72)">f</text><text class="cls-1" transform="translate(122.26 462.34) rotate(-79.23)">u</text><text class="cls-1" transform="matrix(0.31, -0.95, 0.95, 0.31, 135.55, 398.03)">l</text><text class="cls-1" transform="translate(144.2 371.05) rotate(-67.8)">l</text><text class="cls-1" transform="translate(154.59 344.9) rotate(-62.87)">-</text><text class="cls-1" transform="translate(170.21 312.47) rotate(-55.66)">s</text><text class="cls-1" transform="matrix(0.66, -0.75, 0.75, 0.66, 204.26, 263.79)">t</text><text class="cls-1" transform="translate(225.83 237.76) rotate(-41.46)">a</text><text class="cls-1" transform="matrix(0.84, -0.54, 0.54, 0.84, 271.46, 197.24)">c</text><text class="cls-1" transform="translate(321.03 165.48) rotate(-23.51)">k</text><text class="cls-1" transform="translate(375.85 142.45) rotate(-16.71)"> </text><text class="cls-1" transform="translate(403.87 132.69) rotate(-9.45)">d</text><text class="cls-1" transform="matrix(1, -0.02, 0.02, 1, 467.73, 122.47)">e</text><text class="cls-1" transform="translate(529.05 121.79) rotate(8.99)">v</text><text class="cls-1" transform="translate(587.18 130.66) rotate(18.1)">e</text><text class="cls-1" transform="matrix(0.91, 0.42, -0.42, 0.91, 645.5, 150.64)">l</text><text class="cls-1" transform="translate(671.04 161.05) rotate(31.97)">o</text><text class="cls-1" transform="translate(726.27 195.21) rotate(41.75)">p</text><text class="cls-1" transform="translate(774.83 238.45) rotate(51.22)">e</text><text class="cls-1" transform="translate(812.86 286.64) rotate(58.87)">r</text><text class="cls-1" transform="translate(830.9 316.32) rotate(63.34)">.</text><text class="cls-1" transform="translate(844.6 343.48) rotate(67.97)"> </text><text class="cls-1" transform="matrix(0.24, 0.97, -0.97, 0.24, 857.26, 370.19)">E</text><text class="cls-1" transform="translate(874.82 441.5) rotate(85.86)">v</text><text class="cls-1" transform="translate(879.39 500.21) rotate(94.8)">e</text><text class="cls-1" transform="translate(873.71 561.31) rotate(102.48)">r</text><text class="cls-1" transform="translate(865.92 600.63) rotate(110.21)">e</text><text class="cls-1" transform="translate(844.97 657.94) rotate(119.32)">s</text><text class="cls-1" transform="matrix(-0.59, 0.81, -0.81, -0.59, 815.32, 709.4)">t</text><text class="cls-1" transform="translate(794.87 737.15) rotate(131.25)"> </text><text class="cls-1" transform="matrix(-0.77, 0.64, -0.64, -0.77, 777.34, 760.76)">G</text><text class="cls-1" transform="translate(711.21 815.44) rotate(151.29)">u</text><text class="cls-1" transform="translate(654.26 846.74) rotate(160.85)">e</text><text class="cls-1" transform="translate(596.11 866.35) rotate(168.58)">r</text><text class="cls-1" transform="matrix(-1, 0.09, -0.09, -1, 556.41, 874.47)">r</text><text class="cls-1" transform="translate(516.54 879.02) rotate(-177.7)">a</text><text class="cls-1" transform="translate(455.02 875.74) rotate(-170.82)">.</text></svg>